<svg preserveAspectRatio="none" overflow="visible" style="display: block;" width="31.6913" height="31.6913" viewBox="0 0 31.6913 31.6913" fill="none" xmlns="http://www.w3.org/2000/svg">
<g id="logo_twilio">
<path id="Vector" d="M15.2118 11.9371C15.2118 13.7329 13.7329 15.2118 11.9371 15.2118C10.1412 15.2118 8.66229 13.7329 8.66229 11.9371C8.66229 10.1412 10.1412 8.66229 11.9371 8.66229C13.7329 8.66229 15.2118 10.1412 15.2118 11.9371ZM11.9371 16.4795C10.1412 16.4795 8.66229 17.9584 8.66229 19.7543C8.66229 21.5501 10.1412 23.029 11.9371 23.029C13.7329 23.029 15.2118 21.5501 15.2118 19.7543C15.2118 17.9584 13.7329 16.4795 11.9371 16.4795ZM31.6913 15.8457C31.6913 24.6136 24.6136 31.6913 15.8457 31.6913C7.07773 31.6913 0 24.6136 0 15.8457C0 7.07773 7.07773 0 15.8457 0C24.6136 0 31.6913 7.07773 31.6913 15.8457ZM27.4658 15.8457C27.4658 9.40176 22.2896 4.22551 15.8457 4.22551C9.40176 4.22551 4.22551 9.40176 4.22551 15.8457C4.22551 22.2896 9.40176 27.4658 15.8457 27.4658C22.2896 27.4658 27.4658 22.2896 27.4658 15.8457ZM19.7543 16.4795C17.9584 16.4795 16.4795 17.9584 16.4795 19.7543C16.4795 21.5501 17.9584 23.029 19.7543 23.029C21.5501 23.029 23.029 21.5501 23.029 19.7543C23.029 17.9584 21.5501 16.4795 19.7543 16.4795ZM19.7543 8.66229C17.9584 8.66229 16.4795 10.1412 16.4795 11.9371C16.4795 13.7329 17.9584 15.2118 19.7543 15.2118C21.5501 15.2118 23.029 13.7329 23.029 11.9371C23.029 10.1412 21.5501 8.66229 19.7543 8.66229Z" fill="white"/>
</g>
</svg>
