<svg preserveAspectRatio="none" overflow="visible" style="display: block;" width="55.4598" height="55.4598" viewBox="0 0 55.4598 55.4598" fill="none" xmlns="http://www.w3.org/2000/svg">
<g id="Group 1410092567">
<rect id="Rectangle 8944" width="55.4598" height="55.4598" rx="11.8842" fill="#041527"/>
<path id="Vector" d="M39.3246 29.3233C39.3246 29.6059 39.2136 29.8768 39.0159 30.0765C38.8182 30.2762 38.5501 30.3886 38.2705 30.3886C37.9909 30.3886 37.7228 30.2762 37.5251 30.0765C37.3275 29.8768 37.2164 29.6059 37.2164 29.3233V19.8072C37.2164 19.5247 37.3275 19.2537 37.5251 19.054C37.7228 18.8542 37.9909 18.742 38.2705 18.742C38.5501 18.742 38.8182 18.8542 39.0159 19.054C39.2136 19.2537 39.3246 19.5247 39.3246 19.8072V29.3233ZM38.9587 35.9169C38.8193 36.0577 34.8993 39.3589 27.7125 39.3589C20.5258 39.3589 16.6319 36.0753 16.4664 35.9344C16.3621 35.8456 16.2761 35.7367 16.2135 35.6143C16.1509 35.4917 16.1129 35.358 16.1015 35.2205C16.0902 35.0832 16.1058 34.9449 16.1475 34.8135C16.1892 34.6823 16.2561 34.5606 16.3444 34.4555C16.5263 34.2428 16.7841 34.1115 17.0615 34.0899C17.3389 34.0685 17.6135 34.1589 17.8253 34.3411C17.8863 34.3851 21.3882 37.2549 27.7038 37.2549C34.0194 37.2549 37.5475 34.3675 37.5824 34.3411C37.7966 34.1604 38.072 34.0713 38.3501 34.0927C38.6283 34.1141 38.8873 34.2442 39.0719 34.4555C39.2496 34.6651 39.3384 34.9371 39.3188 35.2123C39.2993 35.4875 39.173 35.744 38.9674 35.9256L38.9587 35.9169ZM16.0918 19.8072C16.1075 19.5238 16.2337 19.2582 16.4426 19.0685C16.6515 18.8788 16.9263 18.7804 17.2068 18.7948C17.4669 18.8097 17.7122 18.9214 17.8956 19.1084C18.079 19.2953 18.1874 19.5442 18.1999 19.8072V29.3058C18.1999 29.5882 18.0888 29.8591 17.8912 30.0588C17.6935 30.2587 17.4254 30.3709 17.1458 30.3709C16.8663 30.3709 16.5982 30.2587 16.4005 30.0588C16.2028 29.8591 16.0918 29.5882 16.0918 29.3058V19.8072ZM21.3795 17.6944C21.3952 17.411 21.5214 17.1454 21.7303 16.9557C21.9392 16.766 22.214 16.6676 22.4945 16.682C22.7546 16.697 23 16.8087 23.1833 16.9956C23.3667 17.1825 23.4751 17.4315 23.4876 17.6944V31.7794C23.4876 32.0619 23.3765 32.3328 23.1789 32.5326C22.9812 32.7323 22.7131 32.8445 22.4335 32.8445C22.154 32.8445 21.8859 32.7323 21.6882 32.5326C21.4905 32.3328 21.3795 32.0619 21.3795 31.7794V17.6944ZM26.6934 17.1662C26.6934 16.8837 26.8044 16.6128 27.0021 16.413C27.1998 16.2133 27.4679 16.101 27.7473 16.101C28.0269 16.101 28.295 16.2133 28.4927 16.413C28.6904 16.6128 28.8014 16.8837 28.8014 17.1662V32.4837C28.8014 32.7661 28.6904 33.037 28.4927 33.2369C28.295 33.4366 28.0269 33.5488 27.7473 33.5488C27.4679 33.5488 27.1998 33.4366 27.0021 33.2369C26.8044 33.037 26.6934 32.7661 26.6934 32.4837V17.1662ZM31.9201 17.6944C31.9201 17.4119 32.0311 17.141 32.2288 16.9412C32.4265 16.7415 32.6946 16.6292 32.9741 16.6292C33.2537 16.6292 33.5218 16.7415 33.7194 16.9412C33.9171 17.141 34.0282 17.4119 34.0282 17.6944V31.7794C34.0282 32.0619 33.9171 32.3328 33.7194 32.5326C33.5218 32.7323 33.2537 32.8445 32.9741 32.8445C32.6946 32.8445 32.4265 32.7323 32.2288 32.5326C32.0311 32.3328 31.9201 32.0619 31.9201 31.7794V17.6944ZM39.612 11.8844H15.8479C15.3301 11.8809 14.8167 11.9806 14.3371 12.178C13.8575 12.3753 13.4211 12.6662 13.0529 13.0342C12.6847 13.4022 12.392 13.8399 12.1915 14.3223C11.9909 14.8048 11.8865 15.3225 11.8843 15.8458V39.6142C11.8865 40.1374 11.9909 40.6552 12.1915 41.1376C12.392 41.6199 12.6847 42.0578 13.0529 42.4257C13.4211 42.7936 13.8575 43.0847 14.3371 43.2819C14.8167 43.4793 15.3301 43.579 15.8479 43.5755H39.612C40.1291 43.579 40.6419 43.4796 41.1208 43.2828C41.5999 43.0861 42.0359 42.7959 42.4039 42.4288C42.772 42.0618 43.0649 41.6251 43.2659 41.1436C43.467 40.6623 43.5723 40.1455 43.5756 39.623V15.8458C43.5734 15.3232 43.4693 14.8063 43.2692 14.3244C43.0693 13.8425 42.7774 13.4052 42.41 13.0373C42.0428 12.6695 41.6075 12.3783 41.1288 12.1805C40.6503 11.9827 40.1378 11.882 39.6207 11.8844" fill="white"/>
</g>
</svg>
